# xmcd CD database file
#
# Track frame offsets:
#	150
#	22182
#	49410
#	101765
#	139000
#	172505
#	192172
#	206347
#
# Disc length: 3206 seconds
#
# Revision: 0
# Processed by: cddbd v1.5.2PL0 Copyright (c) Steve Scherf et al.
# Submitted via: CDex 1.70beta2
#
DISCID=680c8408
DTITLE=Hampton,Lionel  - Air Mail Special
DYEAR=1991
DGENRE=Jazz
TTITLE0=In The Mood
TTITLE1=Valve Job
TTITLE2=Stardust Moonglow
TTITLE3=Turnpike
TTITLE4=Hamp`s Boogie Woogie(Hey Bop A Re Bop)
TTITLE5=Air Mail Special
TTITLE6=The More I See You
TTITLE7=Sans Souci
EXTD=YEAR: 1991
EXTT0=
EXTT1=
EXTT2=
EXTT3=
EXTT4=
EXTT5=
EXTT6=
EXTT7=
PLAYORDER=
